<?xml version="1.0" encoding="UTF-8"?><svg id="Layer_2" xmlns="http://www.w3.org/2000/svg" viewBox="0 0 176.66 102.49"><defs><style>.cls-1{fill:#fff;stroke-width:0px;}</style></defs><g id="svg10728"><path class="cls-1" d="M156.19,44.05c-2.13-13.53-13.85-23.89-27.98-23.89-5.57,0-10.76,1.61-15.14,4.39-1.85-13.86-13.71-24.55-28.07-24.55-9.88,0-18.57,5.06-23.64,12.72-1.53-.25-3.09-.39-4.69-.39-15.65,0-28.33,12.68-28.33,28.33,0,.63.03,1.26.07,1.88-15.82.83-28.4,13.92-28.4,29.96s13.43,30,30,30h116.66c16.57,0,30-13.43,30-30,0-13.24-8.58-24.46-20.47-28.44Z"/></g></svg>